<svg width="199.999985" height="199.999969" viewBox="0 0 200 200" fill="none" xmlns="http://www.w3.org/2000/svg" xmlns:xlink="http://www.w3.org/1999/xlink">
	<desc>
			Created with Pixso.
	</desc>
	<defs>
		<filter id="filter_2_1_dd" x="0.000000" y="0.000000" width="199.999985" height="199.999969" filterUnits="userSpaceOnUse" color-interpolation-filters="sRGB">
			<feFlood flood-opacity="0" result="BackgroundImageFix"/>
			<feColorMatrix in="SourceAlpha" type="matrix" values="0 0 0 0 0 0 0 0 0 0 0 0 0 0 0 0 0 0 127 0" result="hardAlpha"/>
			<feOffset dx="0" dy="4"/>
			<feGaussianBlur stdDeviation="1.33333"/>
			<feComposite in2="hardAlpha" operator="out" k2="-1" k3="1"/>
			<feColorMatrix type="matrix" values="0 0 0 0 0 0 0 0 0 0 0 0 0 0 0 0 0 0 0.25 0"/>
			<feBlend mode="normal" in2="BackgroundImageFix" result="effect_dropShadow_1"/>
			<feBlend mode="normal" in="SourceGraphic" in2="effect_dropShadow_1" result="shape"/>
		</filter>
	</defs>
	<rect id="Прямоугольник 1" width="192.000000" height="192.000000" transform="translate(4.000000 0.000000)" fill="#FFFFFF" fill-opacity="0"/>
	<g filter="url(#filter_2_1_dd)">
		<path id="Прямоугольник 1" d="M54 0L146 0C173.61 0 196 22.38 196 50L196 142C196 169.61 173.61 192 146 192L54 192C26.38 192 4 169.61 4 142L4 50C4 22.38 26.38 0 54 0Z" fill="#727BF4" fill-opacity="0.560000" fill-rule="evenodd"/>
		<path id="Прямоугольник 1" d="M146 0L54 0C26.38 0 4 22.38 4 50L4 142C4 169.61 26.38 192 54 192L146 192C173.61 192 196 169.61 196 142L196 50C196 22.38 173.61 0 146 0ZM54 5L146 5Q155.32 5 163.27 8.29Q171.23 11.59 177.82 18.18Q184.41 24.77 187.7 32.72Q191 40.68 191 50L191 142Q191 151.32 187.7 159.27Q184.41 167.23 177.82 173.82Q171.23 180.41 163.27 183.7Q155.32 187 146 187L54 187Q44.68 187 36.72 183.7Q28.77 180.41 22.18 173.82Q15.59 167.23 12.29 159.27Q9 151.32 9 142L9 50Q9 40.68 12.29 32.72Q15.59 24.77 22.18 18.18Q28.77 11.59 36.72 8.29Q44.68 5 54 5ZM135.3 39.1Q139.91 28.62 145.06 17.03L135.93 12.96Q130.49 25.19 125.66 36.18Q108.74 31.79 86.06 30.52Q97.05 29.54 114 27.9L114.01 27.97Q118.15 27.54 120.14 27.31Q120.52 27.27 120.73 27.26Q120.88 27.24 120.95 27.24Q120.94 27.24 120.9 27.24Q120.79 27.25 120.68 27.25Q121.76 27.12 121.93 27.07Q122.29 26.97 122.63 26.82Q122.97 26.68 123.28 26.48Q124.54 25.69 125.12 24.55Q125.7 23.41 125.6 21.92Q125.5 20.34 124.71 19.26Q123.92 18.18 122.45 17.6Q122.02 17.43 121.57 17.34Q121.1 17.25 120.62 17.25Q120.46 17.25 120.29 17.26Q120.22 17.26 120.12 17.27Q120.02 17.28 119.82 17.3Q119.48 17.33 118.76 17.4Q117.85 17.48 114.89 17.77Q71.19 22 66.5 22L65.91 22L65.35 22.13Q61.22 23.1 33.49 26.14Q31.41 26.37 29.6 26.56Q24.67 27.07 22.26 27.33Q21.27 27.43 21.02 27.46Q20.58 27.51 20.18 27.62Q19.33 27.87 18.64 28.35Q17.96 28.84 17.45 29.57Q16.62 30.76 16.51 32.01Q16.41 33.27 17.03 34.58Q17.4 35.36 17.98 35.94Q18.55 36.53 19.32 36.91Q19.68 37.09 20.07 37.21Q20.45 37.33 20.85 37.39Q21.04 37.41 21.23 37.42Q21.47 37.44 21.71 37.43Q21.82 37.43 21.93 37.42Q21.98 37.42 22.04 37.41Q22.15 37.4 22.42 37.37Q25.41 37.07 30.65 36.51Q30.85 36.48 31.01 36.47L31.01 36.47Q32.68 36.29 34.58 36.08Q51.34 34.24 59.84 33.1Q55.64 50.65 50.38 76.8Q40.96 123.64 31.18 154.4Q28.99 159.24 27.79 162.71Q26.03 167.83 27.85 170.33Q28.37 171.04 29.18 171.53Q31.07 172.7 32.72 172.42Q34.47 172.12 35.93 170.19Q36.31 169.7 36.67 169.01Q37.15 168.08 37.75 166.54Q38.68 164.15 39.69 160.86Q61.4 158.71 80.8 153.43Q81.01 155.5 81.56 157.35Q82.47 160.37 84.23 162.78Q87.85 167.76 95.06 170.11Q102.7 172.6 115.57 172.21Q122.91 171.98 138.42 170.3Q160.22 167.94 167.29 168.95L168.7 159.05Q160.39 157.86 137.34 160.36Q107.37 163.61 98.17 160.61Q93.42 159.06 91.72 155.88Q91.36 155.21 91.14 154.47Q90.61 152.73 90.65 150.5Q107.9 144.93 123.2 136.72Q158.85 117.6 168.81 93.08Q172.83 83.18 171.55 74.02Q171.18 71.35 170.36 68.75Q170.1 67.93 169.79 67.12Q165.69 56.17 153.82 48.14Q145.99 42.85 135.3 39.1ZM121.6 45.43Q100.19 40.16 68.49 40Q64.74 56.1 60.18 78.77Q51.69 121.02 42.86 150.47Q63.4 148.11 81.69 142.8Q82.74 138.28 84.87 133.1Q90.17 120.2 96.72 103.97Q105.42 82.41 121.6 45.43ZM93.27 139.05Q93.67 138 94.12 136.89Q99.43 123.97 105.99 107.71Q114.78 85.93 131.28 48.26Q141.15 51.65 148.22 56.43Q158.99 63.71 161.28 73.08Q163.11 80.54 159.54 89.32Q150.95 110.5 118.47 127.91Q106.52 134.32 93.27 139.05Z" fill="#000000" fill-opacity="1.000000" fill-rule="evenodd"/>
	</g>
</svg>
